<?xml version="1.0" encoding="UTF-8"?>
<svg id="Layer_2" data-name="Layer 2" xmlns="http://www.w3.org/2000/svg" viewBox="0 0 520 342.48">
  <defs>
    <style>
      .cls-1 {
        fill: none;
        stroke: #000;
        stroke-miterlimit: 10;
        stroke-width: 20px;
      }

      .cls-2 {
        fill: #000;
        stroke-width: 0px;
      }
    </style>
  </defs>
  <g id="Layer_1-2" data-name="Layer 1">
    <g>
      <g>
        <path class="cls-2" d="M414.07,109.62c9,.02,16.3,7.3,16.3,16.3s-7.3,16.3-16.3,16.3c-4.51,0-8.58-1.82-11.52-4.78-2.96-2.94-4.78-7.01-4.78-11.5v-.02c0-9,7.3-16.3,16.3-16.3Z"/>
        <path class="cls-2" d="M398.27,156.76v.02c0,9-7.3,16.28-16.3,16.28-4.51,0-8.58-1.82-11.52-4.76-2.96-2.94-4.78-7.03-4.78-11.52,0-9,7.3-16.3,16.3-16.3s16.28,7.3,16.3,16.28Z"/>
        <path class="cls-2" d="M381.32,77.51c9,0,16.28,7.3,16.28,16.3s-7.28,16.3-16.28,16.3-16.3-7.3-16.3-16.3,7.3-16.3,16.3-16.3Z"/>
        <path class="cls-2" d="M363.59,125.92c0,9-7.28,16.3-16.28,16.3h-.02c-8.98,0-16.28-7.3-16.28-16.28v-.02c0-9,7.28-16.3,16.28-16.3,9,.02,16.3,7.3,16.3,16.3Z"/>
        <path class="cls-2" d="M182.21,114.91c6.48,0,11.71,5.26,11.71,11.71,0,3.23-1.3,6.15-3.42,8.27-2.12,2.1-5.06,3.42-8.29,3.42h-23.39v23.41c0,6.46-5.26,11.71-11.71,11.71-3.23,0-6.15-1.32-8.27-3.44s-3.44-5.04-3.44-8.27v-23.41h-23.41c-6.46,0-11.7-5.24-11.7-11.7,0-3.23,1.3-6.15,3.42-8.27s5.04-3.44,8.27-3.44h23.41v-23.41c0-6.46,5.26-11.7,11.71-11.7s11.71,5.24,11.71,11.7v23.41h23.39Z"/>
      </g>
      <path class="cls-1" d="M128.8,10c-81.5,0-180.86,322.48-68.36,322.48,42.16,0,82.31-68.47,103.58-91.84h191.94c21.29,23.37,61.44,91.84,103.59,91.84,112.5,0,13.15-322.48-68.37-322.48h-60.08c-11.58,0-27.14,20.73-37.28,20.73h-67.65c-10.13,0-25.7-20.73-37.28-20.73h-60.08Z"/>
    </g>
  </g>
</svg>