<?xml version="1.0" encoding="UTF-8"?>
<svg id="Layer_2" data-name="Layer 2" xmlns="http://www.w3.org/2000/svg" viewBox="0 0 664.45 443.76">
  <defs>
    <style>
      .cls-1 {
        fill: none;
        stroke: #000;
        stroke-miterlimit: 10;
        stroke-width: 20px;
      }

      .cls-2 {
        fill: #000;
        stroke-width: 0px;
      }
    </style>
  </defs>
  <g id="Layer_1-2" data-name="Layer 1">
    <path class="cls-1" d="M357.56,333.1h0l-13.92-65.42h0L94.75,18.79c-11.72-11.72-30.71-11.72-42.43,0L18.79,52.33c-11.72,11.72-11.72,30.71,0,42.43l248.89,248.89h0l65.42,13.92,26.56,5.65c2.12.45,4.01-1.43,3.56-3.56l-5.65-26.56ZM327.47,354.27l-54.14-9.62c-2.39-.42-3.31-3.36-1.6-5.08l67.99-67.99c1.68-1.68,4.56-.83,5.06,1.5l11.34,53.27c-8.63,2.55-26.11,19.29-28.65,27.92Z"/>
    <path class="cls-2" d="M380.83,394.01c10.6,7.98,22.33,14.1,34.7,18.86,12.08,4.65,24.96,7.56,37.87,8.54,11.64.89,23.99-.7,34.35-6.35,5.76-3.14,10.74-7.86,14.17-13.44,3.16-5.13,4.23-11.17,4.61-17.08.72-11.23-1.85-22.44-.4-33.66l-.43,3.19c.39-2.83,1.04-5.59,2.12-8.24l-1.21,2.87c.87-2.06,1.99-3.98,3.35-5.75l-1.88,2.43c1.31-1.67,2.81-3.16,4.47-4.48l-2.43,1.88c2.03-1.57,4.25-2.84,6.61-3.85l-2.87,1.21c3.17-1.33,6.51-2.19,9.92-2.64l-3.19.43c3.42-.44,6.89-.51,10.31-.05l-3.19-.43c2.14.3,4.16.91,6.15,1.74l-2.87-1.21c6.52,2.76,12.39,7.04,17.96,11.35l-2.43-1.88c14.73,11.41,28.12,24.54,41.32,37.65s26.36,26.86,39.76,40.07c5.27,5.2,10.58,10.42,16.33,15.1,2.55,2.07,5.08,3.51,8.49,3.51,2.94,0,6.46-1.31,8.49-3.51s3.66-5.29,3.51-8.49c-.13-2.99-1.09-6.51-3.51-8.49-4.64-3.77-8.97-7.92-13.25-12.09-5.78-5.61-11.44-11.34-17.09-17.08-13.03-13.22-25.99-26.53-39.42-39.34-6.34-6.04-12.78-11.99-19.46-17.65-6.27-5.32-12.74-10.53-19.65-15-2.41-1.56-4.89-3.02-7.48-4.24-2.95-1.38-6.06-2.81-9.3-3.41-4.28-.79-8.63-1.14-12.98-.75-2.99.27-6.02.67-8.94,1.36s-5.87,1.87-8.72,3.11c-11.27,4.9-19.62,15.63-21.79,27.71-1.1,6.15-1.32,12.27-1.02,18.5.25,5.22.76,10.44.82,15.67.02,2.36-.06,4.73-.35,7.07l.43-3.19c-.28,2.11-.75,4.18-1.56,6.15l1.21-2.87c-.67,1.57-1.58,2.99-2.61,4.35l1.88-2.43c-1.31,1.67-2.8,3.16-4.47,4.47l2.43-1.88c-2.15,1.66-4.5,2.99-7,4.05l2.87-1.21c-3.63,1.5-7.45,2.42-11.33,2.95l3.19-.43c-6.34.82-12.71.58-19.04-.25l3.19.43c-11.47-1.55-22.69-4.63-33.37-9.1l2.87,1.21c-9.96-4.21-19.38-9.61-28.02-16.12-2.32-1.75-6.58-1.94-9.25-1.21s-5.8,2.92-7.17,5.51c-1.47,2.78-2.21,6.16-1.21,9.25l1.21,2.87c1.07,1.8,2.5,3.24,4.31,4.31h0Z"/>
  </g>
</svg>