<?xml version="1.0" encoding="UTF-8"?>
<svg id="Layer_2" data-name="Layer 2" xmlns="http://www.w3.org/2000/svg" viewBox="0 0 373.28 373.28">
  <defs>
    <style>
      .cls-1 {
        fill: none;
        stroke: #000;
        stroke-miterlimit: 10;
        stroke-width: 20px;
      }
    </style>
  </defs>
  <g id="Layer_1-2" data-name="Layer 1">
    <path class="cls-1" d="M357.56,333.1h0l-13.92-65.42h0L94.75,18.79c-11.72-11.72-30.71-11.72-42.43,0L18.79,52.33c-11.72,11.72-11.72,30.71,0,42.43l248.89,248.89h0l65.42,13.92,26.56,5.65c2.12.45,4.01-1.43,3.56-3.56l-5.65-26.56ZM327.47,354.27l-54.14-9.62c-2.39-.42-3.31-3.36-1.6-5.08l67.99-67.99c1.68-1.68,4.56-.83,5.06,1.5l11.34,53.27c-8.63,2.55-26.11,19.29-28.65,27.92Z"/>
  </g>
</svg>